{
  "accessors": [
    {
      "bufferView": 2,
      "componentType": 5126,
      "count": 1874,
      "max": [
        16.54816436767578,
        5.152650833129883,
        21.050867080688477
      ],
      "min": [
        4.054234981536865,
        -4.314242839813232,
        -0.039792999625205994
      ],
      "type": "VEC3"
    },
    {
      "bufferView": 2,
      "byteOffset": 22488,
      "componentType": 5126,
      "count": 1874,
      "max": [
        1.0,
        0.9997158646583557,
        0.9969131946563721
      ],
      "min": [
        -1.0,
        -0.9999451637268066,
        -1.0
      ],
      "type": "VEC3"
    },
    {
      "bufferView": 1,
      "componentType": 5126,
      "count": 1874,
      "max": [
        0.9814749956130981,
        0.9760910272598267
      ],
      "min": [
        0.030587000772356987,
        0.38219401240348816
      ],
      "type": "VEC2"
    },
    {
      "bufferView": 0,
      "componentType": 5125,
      "count": 2820,
      "type": "SCALAR"
    },
    {
      "bufferView": 2,
      "byteOffset": 44976,
      "componentType": 5126,
      "count": 1874,
      "max": [
        -3.4659829139709473,
        4.810466766357422,
        21.05301284790039
      ],
      "min": [
        -15.95991325378418,
        -4.28563117980957,
        0.07439500093460083
      ],
      "type": "VEC3"
    },
    {
      "bufferView": 2,
      "byteOffset": 67464,
      "componentType": 5126,
      "count": 1874,
      "max": [
        1.0,
        0.9997158646583557,
        0.9969131946563721
      ],
      "min": [
        -1.0,
        -0.9999451637268066,
        -1.0
      ],
      "type": "VEC3"
    },
    {
      "bufferView": 1,
      "byteOffset": 14992,
      "componentType": 5126,
      "count": 1874,
      "max": [
        0.9814749956130981,
        0.9798750281333923
      ],
      "min": [
        0.030587000772356987,
        0.38219401240348816
      ],
      "type": "VEC2"
    },
    {
      "bufferView": 0,
      "byteOffset": 11280,
      "componentType": 5125,
      "count": 2820,
      "type": "SCALAR"
    },
    {
      "bufferView": 2,
      "byteOffset": 89952,
      "componentType": 5126,
      "count": 1972,
      "max": [
        -23.682565689086914,
        4.876595973968506,
        20.910072326660156
      ],
      "min": [
        -36.17649459838867,
        -4.349610805511475,
        0.07439500093460083
      ],
      "type": "VEC3"
    },
    {
      "bufferView": 2,
      "byteOffset": 113616,
      "componentType": 5126,
      "count": 1972,
      "max": [
        1.0,
        0.9998411536216736,
        0.9884260296821594
      ],
      "min": [
        -1.0,
        -0.9998411536216736,
        -1.0
      ],
      "type": "VEC3"
    },
    {
      "bufferView": 1,
      "byteOffset": 29984,
      "componentType": 5126,
      "count": 1972,
      "max": [
        0.7863010168075562,
        0.9373949766159058
      ],
      "min": [
        0.0,
        0.0
      ],
      "type": "VEC2"
    },
    {
      "bufferView": 0,
      "byteOffset": 22560,
      "componentType": 5125,
      "count": 3000,
      "type": "SCALAR"
    },
    {
      "bufferView": 2,
      "byteOffset": 137280,
      "componentType": 5126,
      "count": 2050,
      "max": [
        36.31699752807617,
        5.256711006164551,
        21.100719451904297
      ],
      "min": [
        24.25710678100586,
        -4.081119060516357,
        0.07439500093460083
      ],
      "type": "VEC3"
    },
    {
      "bufferView": 2,
      "byteOffset": 161880,
      "componentType": 5126,
      "count": 2050,
      "max": [
        1.0,
        0.9998818635940552,
        0.9947950839996338
      ],
      "min": [
        -1.0,
        -0.9930925369262695,
        -1.0
      ],
      "type": "VEC3"
    },
    {
      "bufferView": 1,
      "byteOffset": 45760,
      "componentType": 5126,
      "count": 2050,
      "max": [
        0.985385000705719,
        0.9760910272598267
      ],
      "min": [
        0.030587000772356987,
        0.38219401240348816
      ],
      "type": "VEC2"
    },
    {
      "bufferView": 0,
      "byteOffset": 34560,
      "componentType": 5125,
      "count": 3030,
      "type": "SCALAR"
    }
  ],
  "asset": {
    "extras": {
      "author": "micaelsampaio (https://sketchfab.com/micaelsampaio)",
      "license": "CC-BY-4.0 (http://creativecommons.org/licenses/by/4.0/)",
      "source": "https://sketchfab.com/3d-models/low-poly-characters-pack-f1c8018af59643e0b009a6f018ed9fd9",
      "title": "Low Poly Characters (PACK)"
    },
    "generator": "Sketchfab-12.68.0",
    "version": "2.0"
  },
  "bufferViews": [
    {
      "buffer": 0,
      "byteLength": 46680,
      "name": "floatBufferViews",
      "target": 34963
    },
    {
      "buffer": 0,
      "byteLength": 62160,
      "byteOffset": 46680,
      "byteStride": 8,
      "name": "floatBufferViews",
      "target": 34962
    },
    {
      "buffer": 0,
      "byteLength": 186480,
      "byteOffset": 108840,
      "byteStride": 12,
      "name": "floatBufferViews",
      "target": 34962
    }
  ],
  "buffers": [
    {
      "byteLength": 295320,
      "uri": "scene.bin"
    }
  ],
  "extensionsUsed": [
    "KHR_materials_unlit"
  ],
  "images": [
    {
      "uri": "textures/null_baseColor.png"
    },
    {
      "uri": "textures/material_baseColor.png"
    },
    {
      "uri": "textures/Girl_baseColor.png"
    },
    {
      "uri": "textures/Santa_baseColor.png"
    }
  ],
  "materials": [
    {
      "doubleSided": true,
      "extensions": {
        "KHR_materials_unlit": {}
      },
      "name": "null",
      "pbrMetallicRoughness": {
        "baseColorTexture": {
          "index": 0
        },
        "metallicFactor": 0.0
      }
    },
    {
      "doubleSided": true,
      "extensions": {
        "KHR_materials_unlit": {}
      },
      "name": "material",
      "pbrMetallicRoughness": {
        "baseColorTexture": {
          "index": 1
        },
        "metallicFactor": 0.0
      }
    },
    {
      "doubleSided": true,
      "extensions": {
        "KHR_materials_unlit": {}
      },
      "name": "Girl",
      "pbrMetallicRoughness": {
        "baseColorTexture": {
          "index": 2
        },
        "metallicFactor": 0.0
      }
    },
    {
      "doubleSided": true,
      "extensions": {
        "KHR_materials_unlit": {}
      },
      "name": "Santa",
      "pbrMetallicRoughness": {
        "baseColorTexture": {
          "index": 3
        },
        "metallicFactor": 0.0
      }
    }
  ],
  "meshes": [
    {
      "name": "Object_0",
      "primitives": [
        {
          "attributes": {
            "NORMAL": 1,
            "POSITION": 0,
            "TEXCOORD_0": 2
          },
          "indices": 3,
          "material": 1,
          "mode": 4
        }
      ]
    },
    {
      "name": "Object_1",
      "primitives": [
        {
          "attributes": {
            "NORMAL": 5,
            "POSITION": 4,
            "TEXCOORD_0": 6
          },
          "indices": 7,
          "material": 3,
          "mode": 4
        }
      ]
    },
    {
      "name": "Object_2",
      "primitives": [
        {
          "attributes": {
            "NORMAL": 9,
            "POSITION": 8,
            "TEXCOORD_0": 10
          },
          "indices": 11,
          "material": 0,
          "mode": 4
        }
      ]
    },
    {
      "name": "Object_3",
      "primitives": [
        {
          "attributes": {
            "NORMAL": 13,
            "POSITION": 12,
            "TEXCOORD_0": 14
          },
          "indices": 15,
          "material": 2,
          "mode": 4
        }
      ]
    }
  ],
  "nodes": [
    {
      "children": [
        1
      ],
      "matrix": [
        1.0,
        0.0,
        0.0,
        0.0,
        0.0,
        2.220446049250313e-16,
        -1.0,
        0.0,
        0.0,
        1.0,
        2.220446049250313e-16,
        0.0,
        0.0,
        0.0,
        0.0,
        1.0
      ],
      "name": "Sketchfab_model"
    },
    {
      "children": [
        2,
        3,
        4,
        5
      ],
      "name": "characters pack.obj.cleaner.materialmerger.gles"
    },
    {
      "mesh": 0,
      "name": "Object_2"
    },
    {
      "mesh": 1,
      "name": "Object_3"
    },
    {
      "mesh": 2,
      "name": "Object_4"
    },
    {
      "mesh": 3,
      "name": "Object_5"
    }
  ],
  "samplers": [
    {
      "magFilter": 9729,
      "minFilter": 9987,
      "wrapS": 10497,
      "wrapT": 10497
    }
  ],
  "scene": 0,
  "scenes": [
    {
      "name": "Sketchfab_Scene",
      "nodes": [
        0
      ]
    }
  ],
  "textures": [
    {
      "sampler": 0,
      "source": 0
    },
    {
      "sampler": 0,
      "source": 1
    },
    {
      "sampler": 0,
      "source": 2
    },
    {
      "sampler": 0,
      "source": 3
    }
  ]
}
